<svg width="35" height="35" viewBox="0 0 35 35" fill="none" xmlns="http://www.w3.org/2000/svg">
<path d="M14.7656 14.0822C12.7792 14.0822 11.3477 15.7444 11.3477 17.7626C11.3477 19.9808 13.0549 21.4354 15.6392 23.6372C16.0896 24.0209 16.5553 24.4178 17.0499 24.8504C17.1787 24.9631 17.3393 25.0195 17.4999 25.0195C17.6606 25.0195 17.8211 24.9632 17.95 24.8504C18.4446 24.4178 18.9103 24.0209 19.3607 23.6372C21.9449 21.4354 23.6522 19.9808 23.6522 17.7626C23.6522 15.7442 22.2203 14.0822 20.2343 14.0822C18.8764 14.0822 18.0151 14.8575 17.4999 15.6062C16.9848 14.8575 16.1235 14.0822 14.7656 14.0822ZM18.1592 17.3392C18.1644 17.3203 18.6953 15.4493 20.2343 15.4493C21.4034 15.4493 22.285 16.4438 22.285 17.7626C22.285 19.3495 20.8505 20.5718 18.474 22.5966C18.1586 22.8653 17.8358 23.1403 17.4999 23.4304C17.164 23.1403 16.8412 22.8653 16.5259 22.5966C14.1493 20.5718 12.7148 19.3495 12.7148 17.7626C12.7148 16.4438 13.5964 15.4493 14.7656 15.4493C16.2849 15.4493 16.8171 17.256 16.8412 17.3411C16.9233 17.637 17.1927 17.8419 17.4999 17.8419C17.8078 17.8419 18.0777 17.636 18.1592 17.3392Z" fill="white"/>
<path d="M8.61328 7.65637C8.99082 7.65637 9.29687 7.35032 9.29687 6.97278C9.29687 6.59524 8.99082 6.28918 8.61328 6.28918C8.23574 6.28918 7.92969 6.59524 7.92969 6.97278C7.92969 7.35032 8.23574 7.65637 8.61328 7.65637Z" fill="white"/>
<path d="M30.61 16.2584C31.0893 16.6237 31.6618 16.8166 32.2656 16.8166C33.7733 16.8166 35 15.59 35 14.0823C35 13.221 34.6067 12.4278 33.9236 11.9079L30.4883 9.2678V0.684013C30.4883 0.306537 30.1823 0.000427246 29.8047 0.000427246H25.7032C25.3257 0.000427246 25.0196 0.306537 25.0196 0.684013V5.06505L19.1558 0.558643C18.6765 0.193403 18.104 0.000427246 17.5002 0.000427246C16.8964 0.000427246 16.3239 0.193403 15.8422 0.560352L10.6375 4.56035C10.3381 4.79038 10.2819 5.2196 10.512 5.51888C10.742 5.81815 11.1713 5.87441 11.4706 5.64432L16.673 1.64609C16.9122 1.46392 17.1982 1.3676 17.5002 1.3676C17.8021 1.3676 18.0881 1.46392 18.3251 1.64438L33.093 12.9938C33.4361 13.2549 33.6328 13.6516 33.6328 14.0823C33.6328 14.8361 33.0195 15.4495 32.2656 15.4495C31.9637 15.4495 31.6777 15.3531 31.4409 15.1728C30.6752 14.5839 18.5346 5.24647 17.917 4.77138C17.68 4.58906 17.352 4.58195 17.1072 4.75388C17.0763 4.77555 3.56302 15.17 3.56159 15.1712C3.28754 15.3802 2.94493 15.4764 2.59548 15.4424C1.91859 15.3769 1.55137 15.0585 1.40467 14.4099C1.28176 13.8666 1.47447 13.3238 1.90984 12.9919L6.59439 9.3918C6.89373 9.16177 6.94992 8.73255 6.71982 8.43328C6.48973 8.134 6.0605 8.07774 5.76123 8.30784L1.07894 11.9062C0.214891 12.5649 -0.171198 13.6399 0.0712694 14.7116C0.3486 15.9378 1.1983 16.6807 2.4632 16.8031C3.1567 16.871 3.84111 16.6774 4.39071 16.2582L4.38969 16.2569C4.41874 16.2355 4.45839 16.2056 4.51212 16.1646V25.5434C2.948 25.9185 1.73847 27.1911 1.44965 28.8026C0.547865 29.4402 0.0004499 30.4761 0.0004499 31.582C0.0004499 33.4667 1.53373 34.9999 3.41838 34.9999H31.5821C33.4668 34.9999 35 33.4667 35 31.582C35 30.4761 34.4526 29.4402 33.5508 28.8026C33.2619 27.1905 32.0516 25.9174 30.4884 25.5431V16.1648L30.61 16.2584ZM26.3868 1.3676H29.1211V8.21713L26.3868 6.11572V1.3676ZM10.9378 33.6328H3.41831C2.28752 33.6328 1.36755 32.7129 1.36755 31.5821C1.36755 30.8517 1.77053 30.1707 2.41918 29.8048C2.61393 29.6949 2.74259 29.4967 2.76384 29.2741C2.89749 27.8705 4.05951 26.797 5.46914 26.797C6.34939 26.797 7.18234 27.2305 7.69708 27.9566C7.8584 28.184 8.14175 28.2908 8.41313 28.2262C8.58834 28.1845 8.74337 28.1642 8.88706 28.1642C9.99099 28.1642 10.9243 29.0508 10.9377 30.1908C10.8794 30.6018 11.0991 30.8828 11.3842 30.9821C11.9133 31.1664 12.305 31.6666 12.305 32.2656C12.3049 33.0195 11.6916 33.6328 10.9378 33.6328ZM22.7102 29.8975C22.2877 30.1365 21.9389 30.4812 21.6967 30.8986H13.3034C13.0611 30.4811 12.7125 30.1364 12.2902 29.8975C12.2787 29.7743 12.2605 29.6522 12.2359 29.5307H22.7645C22.7399 29.6521 22.7217 29.7743 22.7102 29.8975ZM13.3051 33.6328C13.5385 33.2304 13.6721 32.7633 13.6721 32.2657H21.3283C21.3283 32.7633 21.462 33.2304 21.6952 33.6328H13.3051ZM32.2366 29.2741C32.2578 29.4967 32.3865 29.6948 32.5812 29.8048C33.2299 30.1707 33.6329 30.8517 33.6329 31.5821C33.6329 32.7129 32.7129 33.6328 31.5821 33.6328H24.0627C23.3088 33.6328 22.6955 33.0195 22.6955 32.2657C22.6955 31.666 23.0879 31.1662 23.6163 30.9822C23.9038 30.882 24.1207 30.5994 24.0628 30.1909C24.0762 29.0537 25.0068 28.1642 26.1134 28.1642C26.2571 28.1642 26.4121 28.1845 26.5874 28.2262C26.8585 28.2908 27.1421 28.1842 27.3034 27.9566C27.8182 27.2306 28.6511 26.7971 29.5313 26.7971C30.9404 26.797 32.1028 27.8693 32.2366 29.2741ZM29.1211 25.4513C28.0995 25.5555 27.1486 26.0443 26.4643 26.8175C26.3449 26.8038 26.2284 26.797 26.1134 26.797C25.0349 26.797 24.0217 27.3124 23.3804 28.1642H11.62C10.979 27.3126 9.96562 26.797 8.887 26.797C8.77188 26.797 8.6554 26.8038 8.53604 26.8175C7.85177 26.0442 6.9009 25.5555 5.87922 25.4513V15.1135C6.87151 14.3503 16.3583 7.0536 17.5001 6.1756L29.1211 15.1134V25.4513Z" fill="white"/>
</svg>
