<?xml version="1.0" standalone="no"?>
<!DOCTYPE svg PUBLIC "-//W3C//DTD SVG 20010904//EN"
 "http://www.w3.org/TR/2001/REC-SVG-20010904/DTD/svg10.dtd">
<svg version="1.0" xmlns="http://www.w3.org/2000/svg"
 width="93.000000pt" height="87.000000pt" viewBox="0 0 93.000000 87.000000"
 preserveAspectRatio="xMidYMid meet">
<metadata>
Created by potrace 1.16, written by Peter Selinger 2001-2019
</metadata>
<g transform="translate(0.000000,87.000000) scale(0.100000,-0.100000)"
fill="#21abdc" stroke="none">
<path d="M107 859 c-40 -24 -47 -59 -47 -254 l0 -185 -30 0 c-25 0 -30 -4 -30
-25 0 -21 5 -25 29 -25 26 0 29 -4 35 -43 10 -63 48 -138 90 -175 20 -17 41
-32 47 -32 5 0 0 -18 -11 -40 -27 -53 -26 -80 3 -80 18 0 28 11 44 50 l21 50
216 0 216 0 25 -50 c17 -34 32 -50 45 -50 32 0 33 19 5 71 l-26 49 35 34 c42
39 73 105 82 170 6 44 8 46 40 46 30 0 34 3 34 25 l0 25 -410 0 -410 0 0 173
c0 118 4 180 13 197 16 31 61 39 88 14 18 -16 18 -17 -6 -46 -28 -34 -34 -92
-11 -123 13 -19 17 -18 107 21 62 26 95 46 97 58 5 24 -33 63 -77 77 -19 7
-49 27 -67 45 -27 30 -38 34 -80 34 -27 0 -57 -5 -67 -11z m692 -531 c-11 -59
-18 -78 -47 -117 -41 -55 -68 -61 -289 -61 -176 0 -201 2 -237 20 -51 24 -85
73 -101 145 l-13 55 348 0 347 0 -8 -42z"/>
</g>
</svg>
