<svg version="1.2" baseProfile="tiny-ps" xmlns="http://www.w3.org/2000/svg" viewBox="0 0 30 30" width="30" height="30">
	<title>bath2-svg</title>
	<style>
		tspan { white-space:pre }
		.shp0 { fill: #FFFFFF } 
	</style>
	<path id="Layer" fill-rule="evenodd" class="shp0" d="M23.49 26.29C24.18 27.02 24.6 28.01 24.6 29.1C24.6 29.6 24.2 30 23.71 30C23.21 30 22.81 29.6 22.81 29.1C22.81 27.88 21.88 26.89 20.73 26.89C20.69 26.89 9.31 26.89 9.27 26.89C8.12 26.89 7.19 27.88 7.19 29.1C7.19 29.6 6.79 30 6.29 30C5.8 30 5.4 29.6 5.4 29.1C5.4 28.01 5.82 27.02 6.51 26.29C2.93 24.95 0.38 21.5 0.38 17.46C0.38 16.96 0.78 16.56 1.27 16.56L25.14 16.56L25.14 4.35C25.14 2.94 24 1.79 22.59 1.79C21.18 1.79 20.03 2.94 20.03 4.35L20.03 5.98C20.03 6.48 19.63 6.88 19.13 6.88C18.64 6.88 18.24 6.48 18.24 5.98L18.24 4.35C18.24 1.95 20.19 0 22.59 0C24.98 0 26.94 1.95 26.94 4.35L26.94 16.56L28.73 16.56C29.22 16.56 29.62 16.96 29.62 17.46C29.62 21.5 27.07 24.95 23.49 26.29ZM27.78 18.35L2.22 18.35C2.66 22.14 5.9 25.1 9.81 25.1L20.19 25.1C24.1 25.1 27.34 22.14 27.78 18.35Z" />
</svg>