<?xml version="1.0" standalone="no"?>
<!DOCTYPE svg PUBLIC "-//W3C//DTD SVG 20010904//EN"
 "http://www.w3.org/TR/2001/REC-SVG-20010904/DTD/svg10.dtd">
<svg version="1.0" xmlns="http://www.w3.org/2000/svg"
 width="111.000000pt" height="64.000000pt" viewBox="0 0 111.000000 64.000000"
 preserveAspectRatio="xMidYMid meet">
<metadata>
Created by potrace 1.16, written by Peter Selinger 2001-2019
</metadata>
<g transform="translate(0.000000,64.000000) scale(0.100000,-0.100000)"
fill="#21abdc" stroke="none">
<path d="M1060 602 c0 -36 -2 -38 -42 -49 -49 -13 -121 -71 -145 -117 -23 -42
-43 -97 -43 -118 0 -17 -25 -18 -385 -18 l-385 0 0 68 c0 74 -16 110 -44 99
-14 -6 -16 -32 -16 -237 l0 -230 24 0 c28 0 36 16 36 71 l0 39 500 0 500 0 0
-55 c0 -52 1 -55 25 -55 l25 0 0 320 0 320 -25 0 c-22 0 -25 -4 -25 -38z m0
-197 l0 -105 -91 0 c-83 0 -91 2 -84 18 3 9 9 29 12 44 8 39 70 108 117 129
23 10 42 19 44 19 1 0 2 -47 2 -105z m0 -205 l0 -40 -500 0 -500 0 0 40 0 40
500 0 500 0 0 -40z"/>
</g>
</svg>
