<svg version="1.2" baseProfile="tiny-ps" xmlns="http://www.w3.org/2000/svg" viewBox="0 0 30 30" width="30" height="30">
	<title>bed2-svg</title>
	<style>
		tspan { white-space:pre }
		.shp0 { fill: #ffffff } 
	</style>
	<path id="Layer" fill-rule="evenodd" class="shp0" d="M30 21.1L30 26.44C30 26.96 29.6 27.38 29.11 27.38L27.22 27.38L27.22 29.06C27.22 29.58 26.82 30 26.33 30C25.83 30 25.44 29.58 25.44 29.06L25.44 27.38L4.56 27.38L4.56 29.06C4.56 29.58 4.17 30 3.67 30C3.18 30 2.78 29.58 2.78 29.06L2.78 27.38L0.89 27.38C0.4 27.38 0 26.96 0 26.44L0 21.1C0 19.27 1.18 17.72 2.78 17.26L2.78 10.23C2.78 8.68 3.98 7.42 5.45 7.42L24.55 7.42C26.02 7.42 27.22 8.68 27.22 10.23L27.22 17.26C28.82 17.72 30 19.27 30 21.1ZM4.56 17.11L6.65 17.11L6.65 15.23C6.65 13.6 7.92 12.26 9.47 12.26L13.07 12.26C13.82 12.26 14.5 12.58 15 13.07C15.5 12.58 16.18 12.26 16.93 12.26L20.53 12.26C22.08 12.26 23.35 13.6 23.35 15.23L23.35 17.11L25.44 17.11L25.44 10.23C25.44 9.71 25.04 9.29 24.55 9.29L5.45 9.29C4.96 9.29 4.56 9.71 4.56 10.23L4.56 17.11ZM20.53 14.14L16.93 14.14C16.36 14.14 15.89 14.63 15.89 15.23L15.89 17.11L21.57 17.11L21.57 15.23C21.57 14.63 21.1 14.14 20.53 14.14ZM13.07 14.14L9.47 14.14C8.9 14.14 8.43 14.63 8.43 15.23L8.43 17.11L14.11 17.11L14.11 15.23C14.11 14.63 13.64 14.14 13.07 14.14ZM28.22 21.1C28.22 19.94 27.32 18.98 26.21 18.98L3.79 18.98C2.68 18.98 1.78 19.94 1.78 21.1L1.78 25.51L28.22 25.51L28.22 21.1Z" />
</svg>