<svg version="1.2" baseProfile="tiny-ps" xmlns="http://www.w3.org/2000/svg" viewBox="0 0 28 30" width="28" height="30">
	<title>garag2-svg</title>
	<style>
		tspan { white-space:pre }
		.shp0 { fill: #ffffff } 
	</style>
	<path id="Layer" fill-rule="evenodd" class="shp0" d="M28 18.19L28 27.18C27.99 28.61 26.87 29.77 25.5 29.77L23.92 29.77C22.54 29.77 21.43 28.61 21.42 27.18L21.42 25.91L6.58 25.91L6.58 27.18C6.57 28.61 5.46 29.77 4.08 29.77L2.5 29.77C1.13 29.77 0.01 28.61 0 27.18L0 18.42C0 17.38 0.44 16.38 1.2 15.7L2.09 14.86L4.2 8.93C4.56 7.91 5.5 7.23 6.54 7.23L21.84 7.23C22.88 7.24 23.81 7.91 24.17 8.93L26.32 14.93L26.93 15.61C27.61 16.29 27.99 17.22 28 18.19ZM3.46 14.58L15.41 14.58C15.67 12.72 17.08 11.26 18.87 10.98C21.11 10.63 23.2 12.24 23.53 14.58L24.93 14.58L23.06 9.35C22.87 8.83 22.38 8.48 21.84 8.48L6.54 8.48C6 8.48 5.52 8.82 5.33 9.35L3.46 14.58ZM20.07 12.24C18.49 11.9 16.95 12.94 16.62 14.58L22.31 14.58C22.07 13.4 21.2 12.49 20.07 12.24ZM5.39 25.91L2.5 25.91C2.03 25.91 1.56 25.79 1.19 25.54L1.19 27.18C1.2 27.92 1.78 28.52 2.5 28.52L4.08 28.52C4.8 28.52 5.38 27.92 5.39 27.18L5.39 25.91ZM26.81 25.54C26.44 25.79 25.97 25.91 25.5 25.91L22.61 25.91L22.61 27.18C22.62 27.92 23.2 28.52 23.92 28.52L25.5 28.52C26.22 28.52 26.8 27.92 26.81 27.18L26.81 25.54ZM26.81 23.33L26.8 23.33L26.8 18.19C26.8 17.55 26.54 16.94 26.1 16.5C26.09 16.49 26.07 16.48 26.06 16.47L25.49 15.83L2.83 15.83L2.02 16.62C2.01 16.62 2 16.64 1.99 16.64C1.49 17.09 1.19 17.74 1.19 18.42L1.19 23.33C1.2 24.08 1.79 24.67 2.5 24.66L25.5 24.66C26.21 24.67 26.8 24.07 26.81 23.33Z" />
</svg>