<?xml version="1.0" standalone="no"?>
<!DOCTYPE svg PUBLIC "-//W3C//DTD SVG 20010904//EN"
 "http://www.w3.org/TR/2001/REC-SVG-20010904/DTD/svg10.dtd">
<svg version="1.0" xmlns="http://www.w3.org/2000/svg"
 width="112.000000pt" height="61.000000pt" viewBox="0 0 112.000000 61.000000"
 preserveAspectRatio="xMidYMid meet">
<metadata>
Created by potrace 1.16, written by Peter Selinger 2001-2019
</metadata>
<g transform="translate(0.000000,61.000000) scale(0.100000,-0.100000)"
fill="#21abdc" stroke="none">
<path d="M108 500 l-111 -109 7 -108 c10 -170 7 -163 82 -163 52 0 64 -3 64
-16 0 -9 19 -35 43 -60 61 -63 113 -63 174 0 24 25 43 51 43 60 0 14 20 16
150 16 130 0 150 -2 150 -16 0 -9 19 -35 43 -60 37 -38 47 -44 85 -44 23 0 42
5 42 10 0 6 6 10 14 10 18 0 76 66 76 85 0 12 16 15 75 15 l75 0 0 96 c0 73
-4 103 -17 125 -23 38 -95 73 -196 95 -72 15 -84 21 -145 76 -110 98 -110 98
-342 98 l-202 0 -110 -110z m517 48 c17 -9 64 -46 105 -81 72 -63 79 -67 170
-88 153 -35 170 -49 170 -143 l0 -56 -55 0 c-40 0 -55 4 -55 14 0 8 -16 28
-35 45 -29 25 -45 31 -81 31 -56 0 -99 -22 -119 -60 l-16 -30 -149 0 -149 0
-16 30 c-20 38 -63 60 -119 60 -36 0 -52 -6 -80 -31 -19 -16 -38 -39 -41 -50
-5 -14 -16 -19 -45 -19 -43 0 -40 -5 -56 133 l-6 57 93 96 c52 53 103 100 114
105 11 5 92 8 180 6 127 -2 166 -6 190 -19z m-290 -353 c42 -41 30 -102 -25
-125 -40 -16 -84 1 -100 40 -33 79 65 146 125 85z m548 11 c24 -19 39 -73 26
-97 -27 -51 -88 -60 -129 -19 -62 62 33 169 103 116z"/>
</g>
</svg>
