<svg version="1.2" baseProfile="tiny-ps" xmlns="http://www.w3.org/2000/svg" viewBox="0 0 28 28" width="28" height="28">
	<title>sq-ft2-svg</title>
	<style>
		tspan { white-space:pre }
		.shp0 { fill: #ffffff } 
	</style>
	<path id="Layer" fill-rule="evenodd" class="shp0" d="M28 0.82L28 27.18C28 27.64 27.64 28 27.18 28L0.82 28C0.09 28 -0.27 27.11 0.24 26.6L26.6 0.24C27.11 -0.27 28 0.09 28 0.82ZM26.36 26.36L26.36 2.81L22.18 6.99L23.32 8.13C23.84 8.65 23.46 9.54 22.75 9.54C22.53 9.54 22.32 9.45 22.16 9.3L21.02 8.15L18.67 10.49L19.81 11.64C20.34 12.16 19.96 13.04 19.24 13.04C19.02 13.04 18.82 12.96 18.66 12.81L17.51 11.66L15.17 14L16.31 15.15C16.83 15.66 16.45 16.55 15.73 16.55C15.52 16.55 15.31 16.46 15.15 16.31L14 15.17L11.66 17.51L12.81 18.65C13.32 19.17 12.95 20.06 12.22 20.06C12.01 20.06 11.8 19.97 11.64 19.81L10.49 18.67L8.15 21.02L9.3 22.16C9.82 22.68 9.44 23.57 8.72 23.57C8.5 23.57 8.3 23.48 8.13 23.32L6.99 22.18L2.81 26.36L26.36 26.36Z" />
</svg>