<?xml version="1.0" standalone="no"?>
<!DOCTYPE svg PUBLIC "-//W3C//DTD SVG 20010904//EN"
 "http://www.w3.org/TR/2001/REC-SVG-20010904/DTD/svg10.dtd">
<svg version="1.0" xmlns="http://www.w3.org/2000/svg"
 width="74.000000pt" height="74.000000pt" viewBox="0 0 74.000000 74.000000"
 preserveAspectRatio="xMidYMid meet">
<metadata>
Created by potrace 1.16, written by Peter Selinger 2001-2019
</metadata>
<g transform="translate(0.000000,74.000000) scale(0.100000,-0.100000)"
fill="#21abdc" stroke="none">
<path d="M0 370 l0 -370 370 0 370 0 0 370 0 370 -370 0 -370 0 0 -370z m340
5 l0 -325 -145 0 -145 0 0 325 0 325 145 0 145 0 0 -325z m360 180 l0 -145
-150 0 -150 0 0 145 0 145 150 0 150 0 0 -145z m-185 -355 l0 -150 -57 0 -58
0 0 150 0 150 58 0 57 0 0 -150z m185 -85 l0 -65 -65 0 -65 0 0 65 0 65 65 0
65 0 0 -65z"/>
<path d="M85 548 c-3 -7 -4 -110 -3 -228 3 -215 3 -215 26 -218 l22 -3 -2 228
c-3 208 -5 228 -21 231 -9 2 -19 -3 -22 -10z"/>
</g>
</svg>
